<svg xmlns="http://www.w3.org/2000/svg" width="375" height="24.966" viewBox="0 0 375 24.966">
  <g id="Group_719" data-name="Group 719" transform="translate(0 -787.034)">
    <g id="Group_718" data-name="Group 718">
      <path id="Path_1175" data-name="Path 1175" d="M-565.437,273.034c-1.461,1.395-8.524,5.44-19.687,9.543s-21.192,6.452-40.361,7.618-35.5.517-62.674-3.666S-763.78,269.7-821.058,274.1c-40.955,3.14-66.025,16.386-77.214,23.9h332.836Z" transform="translate(940.437 514)" fill="#afc4d3"/>
      <path id="Path_1174" data-name="Path 1174" d="M-565.437,276.365c-1.542,1.932-8.25,5.129-19.11,9.11s-21.769,6.558-40.937,7.724-35.5.512-62.674-3.67-75.621-16.821-132.9-12.43c-40.955,3.14-66.025,13.382-77.214,20.9h332.836Z" transform="translate(940.437 514)" fill="#aac8dc"/>
    </g>
    <g id="Group_717" data-name="Group 717" transform="translate(0 8)">
      <path id="Path_1171" data-name="Path 1171" d="M35.688.011C22.737.128,12.049,1.275,3.428,3.748V24.862H177.859c-4.7-.634-10.126-1.468-16.222-2.492C118.094,15.054,72.744-.323,35.688.011Z" transform="translate(-3.428 779.138)" fill="#7a96aa"/>
      <path id="Path_1170" data-name="Path 1170" d="M35.688,3.012c-12.951.117-23.64,1.267-32.261,3.74v18.11H158.24C115.936,17.392,71.817,2.687,35.688,3.012Z" transform="translate(-3.428 779.138)" fill="#7f9bb0"/>
    </g>
  </g>
</svg>
