<svg xmlns="http://www.w3.org/2000/svg" width="56.751" height="17.795" viewBox="0 0 56.751 17.795">
  <g id="Group_876" data-name="Group 876" transform="translate(-4011 8279.773)">
    <path id="Path_1453" data-name="Path 1453" d="M5707.606-9980.391s-.382-.949-.81-2.1-.734-2.086-1.219-2.256-.987.405-1.622,1.612a8.4,8.4,0,0,0-.77,2.743Z" transform="translate(-1689.243 1705.305)" fill="#ffbc00" stroke="#e7aa00" stroke-width="0.6"/>
    <g id="Path_1447" data-name="Path 1447" transform="translate(-1702.51 1697.749)" fill="#ffbc00">
      <path d="M 5759.91943359375 -9960.02734375 C 5759.6552734375 -9960.02734375 5759.42578125 -9960.03515625 5759.24072265625 -9960.0458984375 C 5759.826171875 -9960.8076171875 5761.28515625 -9962.3701171875 5763.40771484375 -9962.3701171875 C 5763.708984375 -9962.3701171875 5764.017578125 -9962.337890625 5764.3251953125 -9962.2763671875 L 5764.4765625 -9962.24609375 L 5764.58984375 -9962.3515625 C 5764.68017578125 -9962.4365234375 5764.85205078125 -9962.59765625 5764.80419921875 -9962.798828125 C 5764.90283203125 -9962.9482421875 5765.2568359375 -9963.3701171875 5766.5 -9964.5634765625 C 5768.1015625 -9966.1005859375 5768.49609375 -9968.1494140625 5768.7841796875 -9969.64453125 C 5768.96142578125 -9970.56640625 5769.11474609375 -9971.3623046875 5769.4619140625 -9971.3623046875 C 5769.5048828125 -9971.361328125 5769.609375 -9971.3603515625 5769.72314453125 -9971.1533203125 C 5769.99853515625 -9970.6494140625 5770.0390625 -9969.4970703125 5769.8291015625 -9968.146484375 C 5769.6103515625 -9966.736328125 5769.16259765625 -9965.3876953125 5768.6318359375 -9964.5400390625 C 5767.23291015625 -9962.3046875 5766.33203125 -9961.580078125 5763.81103515625 -9960.666015625 C 5762.3564453125 -9960.1376953125 5760.8916015625 -9960.02734375 5759.91943359375 -9960.02734375 Z" stroke="none"/>
      <path d="M 5759.91943359375 -9960.3271484375 C 5760.86767578125 -9960.3271484375 5762.294921875 -9960.4345703125 5763.708984375 -9960.9482421875 C 5766.15087890625 -9961.833984375 5767.0234375 -9962.53515625 5768.37744140625 -9964.69921875 C 5768.93115234375 -9965.583984375 5769.3916015625 -9967.0478515625 5769.5791015625 -9968.51953125 C 5769.76708984375 -9969.99609375 5769.59375 -9970.794921875 5769.455078125 -9971.0234375 C 5769.3115234375 -9970.7958984375 5769.17333984375 -9970.078125 5769.07861328125 -9969.587890625 C 5768.783203125 -9968.052734375 5768.3779296875 -9965.9501953125 5766.7080078125 -9964.34765625 C 5765.640625 -9963.3232421875 5765.25390625 -9962.890625 5765.11376953125 -9962.712890625 C 5765.10693359375 -9962.54296875 5765.02294921875 -9962.3466796875 5764.794921875 -9962.1328125 L 5764.5693359375 -9961.9208984375 L 5764.265625 -9961.982421875 C 5763.9775390625 -9962.0400390625 5763.68896484375 -9962.0693359375 5763.40771484375 -9962.0693359375 C 5761.7822265625 -9962.0693359375 5760.56298828125 -9961.08203125 5759.869140625 -9960.3271484375 C 5759.8857421875 -9960.3271484375 5759.90234375 -9960.3271484375 5759.91943359375 -9960.3271484375 M 5759.91943359375 -9959.7275390625 C 5759.171875 -9959.7275390625 5758.6962890625 -9959.791015625 5758.6962890625 -9959.791015625 C 5758.6962890625 -9959.791015625 5760.40283203125 -9962.669921875 5763.40771484375 -9962.669921875 C 5763.71923828125 -9962.669921875 5764.044921875 -9962.638671875 5764.38427734375 -9962.5703125 C 5764.87939453125 -9963.03515625 5763.55859375 -9962.15625 5766.29248046875 -9964.7802734375 C 5769.021484375 -9967.3994140625 5768.10546875 -9971.662109375 5769.4619140625 -9971.662109375 C 5769.46435546875 -9971.662109375 5769.46630859375 -9971.662109375 5769.46875 -9971.662109375 C 5770.83544921875 -9971.646484375 5770.2998046875 -9966.6396484375 5768.88623046875 -9964.380859375 C 5767.47265625 -9962.1220703125 5766.51318359375 -9961.3271484375 5763.91357421875 -9960.3837890625 C 5762.421875 -9959.8427734375 5760.9248046875 -9959.7275390625 5759.91943359375 -9959.7275390625 Z" stroke="none" fill="#e7aa00"/>
    </g>
    <g id="Group_865" data-name="Group 865" transform="translate(4011 -8276.862)">
      <g id="Rectangle_538" data-name="Rectangle 538" transform="translate(0 -0.137)" fill="#ffbc00" stroke="#e7aa00" stroke-width="0.6">
        <rect width="54" height="15" rx="7.5" stroke="none"/>
        <rect x="0.3" y="0.3" width="53.4" height="14.4" rx="7.2" fill="none"/>
      </g>
      <text id="狗狗好朋友" transform="translate(26 10.862)" fill="#fff" font-size="8" font-family="YuGothicUI-Bold, Yu Gothic UI" font-weight="700"><tspan x="-20" y="0">狗狗好朋友</tspan></text>
    </g>
    <path id="Path_1452" data-name="Path 1452" d="M5705.628-9981.439c-.96-.456-1.7-.369-1.387-1.013.429-1.148.814-2.124,1.3-2.294s1.051.362,1.621,1.612.5,2.581.1,2.419S5706.588-9980.983,5705.628-9981.439Z" transform="translate(-1683.944 1705.308)" fill="#ffbc00" stroke="#e7aa00" stroke-width="0.6"/>
  </g>
</svg>
