<svg xmlns="http://www.w3.org/2000/svg" width="60.81" height="17.804" viewBox="0 0 60.81 17.804">
  <g id="Group_877" data-name="Group 877" transform="translate(-4011 8251.804)">
    <path id="Path_1450" data-name="Path 1450" d="M5707.606-9980.391s-.382-.949-.81-2.1-.734-2.086-1.219-2.256-.987.405-1.622,1.612a8.4,8.4,0,0,0-.77,2.743Z" transform="translate(-1689.243 1733.277)" fill="#9441ff" stroke="#7024d2" stroke-width="0.6"/>
    <g id="Group_869" data-name="Group 869" transform="translate(3991 -8588.44)">
      <g id="Path_1412" data-name="Path 1412" transform="translate(-5693.51 10314.153)" fill="#9441ff">
        <path d="M 5759.55224609375 -9960.0498046875 C 5759.4404296875 -9960.0498046875 5759.33837890625 -9960.05078125 5759.2470703125 -9960.0546875 C 5759.83642578125 -9960.8193359375 5761.29296875 -9962.3701171875 5763.40771484375 -9962.3701171875 C 5763.708984375 -9962.3701171875 5764.017578125 -9962.337890625 5764.3251953125 -9962.2763671875 L 5764.4765625 -9962.24609375 L 5764.58984375 -9962.3515625 C 5764.68017578125 -9962.4365234375 5764.85205078125 -9962.59765625 5764.80419921875 -9962.798828125 C 5764.90283203125 -9962.9482421875 5765.2568359375 -9963.3701171875 5766.5 -9964.5634765625 C 5768.1015625 -9966.1005859375 5768.49609375 -9968.1494140625 5768.7841796875 -9969.64453125 C 5768.96142578125 -9970.56640625 5769.11474609375 -9971.3623046875 5769.4619140625 -9971.3623046875 C 5769.509765625 -9971.361328125 5769.62841796875 -9971.3603515625 5769.74853515625 -9971.1416015625 C 5770.01806640625 -9970.650390625 5770.052734375 -9969.556640625 5769.837890625 -9968.2861328125 C 5769.6064453125 -9966.9150390625 5769.13525390625 -9965.5830078125 5768.54541015625 -9964.6318359375 C 5767.06640625 -9962.24609375 5765.990234375 -9961.8134765625 5763.6328125 -9960.865234375 L 5763.427734375 -9960.783203125 C 5761.9208984375 -9960.1767578125 5760.48828125 -9960.0498046875 5759.55224609375 -9960.0498046875 Z" stroke="none"/>
        <path d="M 5759.89453125 -9960.35546875 C 5760.79248046875 -9960.384765625 5762.0263671875 -9960.54296875 5763.3154296875 -9961.0615234375 L 5763.5205078125 -9961.1435546875 C 5765.884765625 -9962.0947265625 5766.86328125 -9962.4873046875 5768.29052734375 -9964.7900390625 C 5768.91455078125 -9965.796875 5769.40283203125 -9967.255859375 5769.5966796875 -9968.6943359375 C 5769.787109375 -9970.109375 5769.6025390625 -9970.8505859375 5769.46435546875 -9971.0380859375 C 5769.3173828125 -9970.826171875 5769.17529296875 -9970.0888671875 5769.07861328125 -9969.587890625 C 5768.783203125 -9968.052734375 5768.3779296875 -9965.9501953125 5766.7080078125 -9964.34765625 C 5765.640625 -9963.3232421875 5765.25390625 -9962.890625 5765.11376953125 -9962.712890625 C 5765.10693359375 -9962.54296875 5765.02294921875 -9962.3466796875 5764.794921875 -9962.1328125 L 5764.5693359375 -9961.9208984375 L 5764.265625 -9961.982421875 C 5763.9775390625 -9962.0400390625 5763.68896484375 -9962.0693359375 5763.40771484375 -9962.0693359375 C 5761.80224609375 -9962.0693359375 5760.5927734375 -9961.10546875 5759.89453125 -9960.35546875 M 5759.55224609375 -9959.7490234375 C 5759.01806640625 -9959.7490234375 5758.6962890625 -9959.791015625 5758.6962890625 -9959.791015625 C 5758.6962890625 -9959.791015625 5760.40283203125 -9962.669921875 5763.40771484375 -9962.669921875 C 5763.71923828125 -9962.669921875 5764.044921875 -9962.638671875 5764.38427734375 -9962.5703125 C 5764.87939453125 -9963.03515625 5763.55859375 -9962.15625 5766.29248046875 -9964.7802734375 C 5769.021484375 -9967.3994140625 5768.10546875 -9971.662109375 5769.4619140625 -9971.662109375 C 5769.46435546875 -9971.662109375 5769.46630859375 -9971.662109375 5769.46875 -9971.662109375 C 5770.83544921875 -9971.646484375 5770.37451171875 -9967.013671875 5768.80029296875 -9964.4736328125 C 5767.22607421875 -9961.9345703125 5766.0595703125 -9961.51953125 5763.53955078125 -9960.5048828125 C 5761.95751953125 -9959.8681640625 5760.45263671875 -9959.7490234375 5759.55224609375 -9959.7490234375 Z" stroke="none" fill="#7024d2"/>
      </g>
      <g id="Path_1413" data-name="Path 1413" transform="translate(-5693.504 10310.511)" fill="#9441ff">
        <path d="M 5763.146484375 -9956.3701171875 C 5761.5712890625 -9956.3701171875 5760.04931640625 -9956.4072265625 5759.26171875 -9956.4306640625 C 5759.70361328125 -9956.9990234375 5760.60791015625 -9957.978515625 5761.89404296875 -9958.453125 C 5761.7763671875 -9958.3408203125 5761.73046875 -9958.2255859375 5761.74267578125 -9958.0966796875 C 5761.78466796875 -9957.666015625 5762.41455078125 -9957.666015625 5762.79052734375 -9957.666015625 C 5762.833984375 -9957.666015625 5762.87890625 -9957.666015625 5762.92626953125 -9957.6669921875 C 5765.90478515625 -9957.71875 5768.712890625 -9958.0283203125 5770.83349609375 -9958.5361328125 C 5771.11181640625 -9958.603515625 5771.3759765625 -9958.6689453125 5771.63134765625 -9958.7333984375 C 5772.46044921875 -9958.94140625 5773.17626953125 -9959.1201171875 5773.623046875 -9959.1201171875 C 5773.80126953125 -9959.1201171875 5773.92919921875 -9959.08984375 5773.9736328125 -9959.037109375 C 5774.01708984375 -9958.9853515625 5774.02587890625 -9958.861328125 5773.99755859375 -9958.6962890625 C 5773.86572265625 -9957.9228515625 5771.3486328125 -9957.0830078125 5767.58544921875 -9956.5546875 C 5766.7080078125 -9956.4326171875 5765.21435546875 -9956.3701171875 5763.146484375 -9956.3701171875 Z" stroke="none"/>
        <path d="M 5773.623046875 -9958.8203125 C 5773.21337890625 -9958.8203125 5772.513671875 -9958.6455078125 5771.7041015625 -9958.4423828125 C 5771.44775390625 -9958.3779296875 5771.18310546875 -9958.3115234375 5770.9033203125 -9958.2451171875 C 5768.76220703125 -9957.7314453125 5765.93115234375 -9957.419921875 5762.931640625 -9957.3671875 C 5762.88232421875 -9957.3662109375 5762.83544921875 -9957.365234375 5762.79052734375 -9957.365234375 C 5762.4033203125 -9957.365234375 5761.625 -9957.365234375 5761.46826171875 -9957.9365234375 C 5760.80517578125 -9957.591796875 5760.27490234375 -9957.12109375 5759.8955078125 -9956.7138671875 C 5760.73388671875 -9956.6923828125 5761.92431640625 -9956.669921875 5763.146484375 -9956.669921875 C 5765.171875 -9956.669921875 5766.6923828125 -9956.7333984375 5767.54345703125 -9956.8515625 C 5768.6640625 -9957.0087890625 5770.283203125 -9957.2802734375 5771.6328125 -9957.6806640625 C 5773.59814453125 -9958.2646484375 5773.701171875 -9958.7421875 5773.7021484375 -9958.7470703125 C 5773.70654296875 -9958.7744140625 5773.70947265625 -9958.796875 5773.71142578125 -9958.81640625 C 5773.68798828125 -9958.8193359375 5773.65869140625 -9958.8203125 5773.623046875 -9958.8203125 M 5773.623046875 -9959.419921875 C 5774.13720703125 -9959.419921875 5774.39111328125 -9959.21875 5774.29345703125 -9958.6455078125 C 5774.07666015625 -9957.3779296875 5770.09228515625 -9956.603515625 5767.626953125 -9956.2578125 C 5766.5849609375 -9956.1123046875 5764.82763671875 -9956.0703125 5763.146484375 -9956.0703125 C 5760.8505859375 -9956.0703125 5758.6962890625 -9956.1484375 5758.6962890625 -9956.1484375 C 5758.6962890625 -9956.1484375 5760.40283203125 -9959.02734375 5763.40771484375 -9959.02734375 C 5763.61669921875 -9959.02734375 5763.83203125 -9959.0126953125 5764.05322265625 -9958.9833984375 C 5763.12255859375 -9958.80078125 5760.876953125 -9957.9658203125 5762.79052734375 -9957.9658203125 C 5762.83203125 -9957.9658203125 5762.87548828125 -9957.9658203125 5762.9208984375 -9957.966796875 C 5765.7001953125 -9958.015625 5768.52734375 -9958.2919921875 5770.763671875 -9958.828125 C 5771.990234375 -9959.1220703125 5772.99853515625 -9959.419921875 5773.623046875 -9959.419921875 Z M 5764.3271484375 -9959.0185546875 C 5764.421875 -9959.0185546875 5764.45166015625 -9958.9912109375 5764.38427734375 -9958.927734375 C 5764.2724609375 -9958.9501953125 5764.162109375 -9958.96875 5764.05322265625 -9958.9833984375 C 5764.16796875 -9959.005859375 5764.2626953125 -9959.0185546875 5764.3271484375 -9959.0185546875 Z" stroke="none" fill="#7024d2"/>
      </g>
      <g id="Group_866" data-name="Group 866" transform="translate(20 338.974)">
        <g id="Rectangle_538" data-name="Rectangle 538" transform="translate(0 0.467)" fill="#9441ff" stroke="#7024d2" stroke-width="0.6">
          <rect width="54" height="15" rx="7.5" stroke="none"/>
          <rect x="0.3" y="0.3" width="53.4" height="14.4" rx="7.2" fill="none"/>
        </g>
        <text id="狗狗摯友" transform="translate(27 11.467)" fill="#fff" font-size="8" font-family="YuGothicUI-Bold, Yu Gothic UI" font-weight="700"><tspan x="-16" y="0">狗狗摯友</tspan></text>
      </g>
      <path id="Path_1414" data-name="Path 1414" d="M5774.609-9926.172a3.428,3.428,0,0,1,1,2.492" transform="translate(-5697.609 10273.943)" fill="none" stroke="#7024d2" stroke-linecap="round" stroke-width="0.5"/>
      <path id="Path_1415" data-name="Path 1415" d="M5774.608-9926.171a5.158,5.158,0,0,1,1.5,3.75" transform="translate(-5696.455 10272.611)" fill="none" stroke="#7024d2" stroke-linecap="round" stroke-width="0.5"/>
    </g>
    <path id="Path_1451" data-name="Path 1451" d="M5705.628-9981.439c-.96-.456-1.7-.369-1.387-1.013.429-1.148.814-2.124,1.3-2.294s1.051.362,1.621,1.612.5,2.581.1,2.419S5706.588-9980.983,5705.628-9981.439Z" transform="translate(-1683.944 1733.277)" fill="#9441ff" stroke="#7024d2" stroke-width="0.6"/>
  </g>
</svg>
