<svg xmlns="http://www.w3.org/2000/svg" width="347" height="597" viewBox="0 0 347 597">
  <g id="Group_878" data-name="Group 878" transform="translate(-14 -87)">
    <rect id="Rectangle_529" data-name="Rectangle 529" width="347" height="597" rx="36" transform="translate(14 87)" fill="#fff"/>
    <text id="貢獻度" transform="translate(160 141)" fill="rgba(0,0,0,0.87)" font-size="20" font-family="YuGothicUI-Bold, Yu Gothic UI" font-weight="700"><tspan x="0" y="0">貢獻度</tspan></text>
    <text id="積分規則" transform="translate(34 481)" fill="rgba(0,0,0,0.87)" font-size="18" font-family="YuGothicUI-Regular, Yu Gothic UI"><tspan x="0" y="0">積分規則</tspan></text>
    <text id="頭銜" transform="translate(34 197)" fill="rgba(0,0,0,0.87)" font-size="18" font-family="YuGothicUI-Regular, Yu Gothic UI"><tspan x="0" y="0">頭銜</tspan></text>
    <text id="評論" transform="translate(34 631)" fill="rgba(0,0,0,0.87)" font-size="16" font-family="YuGothicUI-Regular, Yu Gothic UI"><tspan x="0" y="17">評論</tspan></text>
    <text id="定位狗狗" transform="translate(34 514)" fill="rgba(0,0,0,0.87)" font-size="16" font-family="YuGothicUI-Regular, Yu Gothic UI"><tspan x="0" y="17">定位狗狗</tspan></text>
    <text id="照片被按愛心" transform="translate(34 592)" fill="rgba(0,0,0,0.87)" font-size="16" font-family="YuGothicUI-Regular, Yu Gothic UI"><tspan x="0" y="17">照片被按愛心</tspan></text>
    <text id="每次上傳照片" transform="translate(34 553)" fill="rgba(0,0,0,0.87)" font-size="16" font-family="YuGothicUI-Regular, Yu Gothic UI"><tspan x="0" y="17">每次上傳照片</tspan></text>
    <text id="_1" data-name="+1" transform="translate(292 631)" fill="rgba(0,0,0,0.87)" font-size="16" font-family="SegoeUI, Segoe UI"><tspan x="-19.57" y="17">+1</tspan></text>
    <text id="_1-2" data-name="+1" transform="translate(292 592)" fill="rgba(0,0,0,0.87)" font-size="16" font-family="SegoeUI, Segoe UI"><tspan x="-19.57" y="17">+1</tspan></text>
    <text id="_8" data-name="+8" transform="translate(292 514)" fill="rgba(0,0,0,0.87)" font-size="16" font-family="SegoeUI, Segoe UI"><tspan x="-19.57" y="17">+8</tspan></text>
    <text id="_5_" data-name="+5 " transform="translate(292 553)" fill="rgba(0,0,0,0.87)" font-size="16" font-family="SegoeUI, Segoe UI"><tspan x="-19.57" y="17">+5 </tspan></text>
    <line id="Line_125" data-name="Line 125" x2="125.45" transform="translate(155.273 241)" fill="none" stroke="#9e5c35" stroke-linecap="round" stroke-width="2"/>
    <line id="Line_126" data-name="Line 126" x2="125.45" transform="translate(155.273 291)" fill="none" stroke="#969696" stroke-linecap="round" stroke-width="2"/>
    <line id="Line_127" data-name="Line 127" x2="125.45" transform="translate(155.273 341)" fill="none" stroke="#e7aa00" stroke-linecap="round" stroke-width="2"/>
    <path id="Path_1446" data-name="Path 1446" d="M0,0H125.454" transform="translate(155.269 394)" fill="none" stroke="#7024d2" stroke-linecap="round" stroke-width="2"/>
    <text id="_10" data-name="10" transform="translate(324 248)" fill="rgba(0,0,0,0.87)" font-size="16" font-family="SegoeUI, Segoe UI"><tspan x="0" y="0">10</tspan></text>
    <text id="_80" data-name="80" transform="translate(324 297.5)" fill="rgba(0,0,0,0.87)" font-size="16" font-family="SegoeUI, Segoe UI"><tspan x="0" y="0">80</tspan></text>
    <text id="_200" data-name="200" transform="translate(315 348)" fill="rgba(0,0,0,0.87)" font-size="16" font-family="SegoeUI, Segoe UI"><tspan x="0" y="0">200</tspan></text>
    <text id="_500" data-name="500" transform="translate(315 398)" fill="rgba(0,0,0,0.87)" font-size="16" font-family="SegoeUI, Segoe UI"><tspan x="0" y="0">500</tspan></text>
    <g id="Group_863" data-name="Group 863" transform="translate(9 32)">
      <g id="Rectangle_538" data-name="Rectangle 538" transform="translate(25 198)" fill="#bc6d3f" stroke="#9e5c35" stroke-width="0.6">
        <rect width="78" height="22" rx="11" stroke="none"/>
        <rect x="0.3" y="0.3" width="77.4" height="21.4" rx="10.7" fill="none"/>
      </g>
      <text id="狗狗觀察員" transform="translate(64 214)" fill="#fff" font-size="12" font-family="YuGothicUI-Bold, Yu Gothic UI" font-weight="700"><tspan x="-30" y="0">狗狗觀察員</tspan></text>
    </g>
    <g id="Group_864" data-name="Group 864" transform="translate(9 45)">
      <g id="Rectangle_538-2" data-name="Rectangle 538" transform="translate(25 235)" fill="#a6a6a6" stroke="#969696" stroke-width="0.6">
        <rect width="78" height="22" rx="11" stroke="none"/>
        <rect x="0.3" y="0.3" width="77.4" height="21.4" rx="10.7" fill="none"/>
      </g>
      <text id="狗狗好鄰居" transform="translate(64 251)" fill="#fff" font-size="12" font-family="YuGothicUI-Bold, Yu Gothic UI" font-weight="700"><tspan x="-30" y="0">狗狗好鄰居</tspan></text>
    </g>
    <g id="Group_868" data-name="Group 868" transform="translate(3 20)">
      <g id="Path_1416" data-name="Path 1416" transform="translate(-5662 10286.718)" fill="#ffbc00">
        <path d="M 5759.91650390625 -9955.017578125 C 5759.6474609375 -9955.017578125 5759.4169921875 -9955.025390625 5759.232421875 -9955.03515625 C 5759.5107421875 -9955.41796875 5759.99267578125 -9956.0185546875 5760.658203125 -9956.61328125 C 5762.1123046875 -9957.912109375 5763.70654296875 -9958.5712890625 5765.396484375 -9958.5712890625 C 5765.833984375 -9958.5712890625 5766.28173828125 -9958.525390625 5766.7275390625 -9958.435546875 L 5766.87939453125 -9958.404296875 L 5766.99267578125 -9958.5107421875 C 5767.18212890625 -9958.6884765625 5767.3525390625 -9958.9111328125 5767.17919921875 -9959.20703125 C 5767.2236328125 -9959.3408203125 5767.552734375 -9959.853515625 5769.69384765625 -9961.642578125 C 5772.09423828125 -9963.6494140625 5772.6162109375 -9966.6455078125 5772.9970703125 -9968.833984375 C 5773.27001953125 -9970.4013671875 5773.46484375 -9971.3623046875 5774.009765625 -9971.3623046875 L 5774.01611328125 -9971.3623046875 C 5774.091796875 -9971.361328125 5774.32177734375 -9971.3583984375 5774.5283203125 -9970.982421875 C 5775.3525390625 -9969.482421875 5774.65576171875 -9964.5673828125 5772.81396484375 -9961.595703125 C 5770.6884765625 -9958.1669921875 5769.14599609375 -9957.546875 5765.7666015625 -9956.1884765625 L 5765.4736328125 -9956.0703125 C 5763.31298828125 -9955.2001953125 5761.2587890625 -9955.017578125 5759.91650390625 -9955.017578125 Z" stroke="none"/>
        <path d="M 5759.91650390625 -9954.7177734375 L 5759.91650390625 -9955.3173828125 C 5761.232421875 -9955.3173828125 5763.24560546875 -9955.4970703125 5765.361328125 -9956.3486328125 L 5765.65478515625 -9956.466796875 C 5768.9716796875 -9957.7998046875 5770.4853515625 -9958.408203125 5772.55908203125 -9961.75390625 C 5773.38623046875 -9963.0888671875 5774.0478515625 -9964.9609375 5774.3740234375 -9966.8896484375 C 5774.66845703125 -9968.6328125 5774.62548828125 -9970.1826171875 5774.26513671875 -9970.837890625 C 5774.14306640625 -9971.060546875 5774.0517578125 -9971.0615234375 5774.009765625 -9971.0625 C 5773.689453125 -9971.0625 5773.46044921875 -9969.744140625 5773.29296875 -9968.7822265625 C 5772.90380859375 -9966.548828125 5772.37109375 -9963.4892578125 5769.88623046875 -9961.4130859375 C 5768.171875 -9959.9794921875 5767.66455078125 -9959.4072265625 5767.51513671875 -9959.19140625 C 5767.6171875 -9958.8876953125 5767.5107421875 -9958.5859375 5767.19775390625 -9958.2919921875 L 5766.97216796875 -9958.080078125 L 5766.66845703125 -9958.1416015625 C 5766.24169921875 -9958.2275390625 5765.81396484375 -9958.271484375 5765.396484375 -9958.271484375 C 5763.7880859375 -9958.271484375 5762.26513671875 -9957.6416015625 5760.87158203125 -9956.4013671875 C 5760.44580078125 -9956.0224609375 5760.09716796875 -9955.640625 5759.8310546875 -9955.318359375 C 5759.85888671875 -9955.318359375 5759.8876953125 -9955.3173828125 5759.91650390625 -9955.3173828125 L 5759.91650390625 -9954.7177734375 M 5759.91650390625 -9954.7177734375 C 5759.1552734375 -9954.7177734375 5758.6962890625 -9954.77734375 5758.6962890625 -9954.77734375 C 5758.6962890625 -9954.77734375 5761.12353515625 -9958.87109375 5765.396484375 -9958.87109375 C 5765.84033203125 -9958.87109375 5766.30419921875 -9958.8271484375 5766.787109375 -9958.7294921875 C 5767.4912109375 -9959.390625 5765.4482421875 -9958.4853515625 5769.50146484375 -9961.873046875 C 5773.5478515625 -9965.2548828125 5772.0810546875 -9971.662109375 5774.009765625 -9971.662109375 C 5774.01318359375 -9971.662109375 5774.01611328125 -9971.662109375 5774.01953125 -9971.662109375 C 5775.96337890625 -9971.640625 5775.30810546875 -9965.0498046875 5773.06884765625 -9961.4375 C 5770.82958984375 -9957.8251953125 5769.17041015625 -9957.2353515625 5765.58544921875 -9955.7919921875 C 5763.33642578125 -9954.88671875 5761.1982421875 -9954.7177734375 5759.91650390625 -9954.7177734375 Z" stroke="none" fill="#e7aa00"/>
      </g>
      <path id="Path_1418" data-name="Path 1418" d="M5709.473-9978.54s-.543-1.35-1.152-2.985-1.044-2.967-1.734-3.209-1.344.658-2.307,2.293a10.094,10.094,0,0,0-1.095,3.9Z" transform="translate(-5668 10291.656)" fill="#ffbc00" stroke="#e7aa00" stroke-width="0.6"/>
      <g id="Group_865" data-name="Group 865" transform="translate(11 14)">
        <g id="Rectangle_538-3" data-name="Rectangle 538" transform="translate(20 296)" fill="#ffbc00" stroke="#e7aa00" stroke-width="0.6">
          <rect width="78" height="22" rx="11" stroke="none"/>
          <rect x="0.3" y="0.3" width="77.4" height="21.4" rx="10.7" fill="none"/>
        </g>
        <text id="狗狗好朋友" transform="translate(59 312)" fill="#fff" font-size="12" font-family="YuGothicUI-Bold, Yu Gothic UI" font-weight="700"><tspan x="-30" y="0">狗狗好朋友</tspan></text>
      </g>
      <path id="Path_1422" data-name="Path 1422" d="M5705.872-9980.272c-1.11-.359-1.8-.536-1.534-1.253.609-1.635,1.044-2.967,1.734-3.209s1.344.658,2.307,2.293.687,3.569,0,3.268A21.018,21.018,0,0,0,5705.872-9980.272Z" transform="translate(-5660 10291.656)" fill="#ffbc00" stroke="#e7aa00" stroke-width="0.6"/>
    </g>
    <g id="Group_867" data-name="Group 867" transform="translate(14 40)">
      <g id="Path_1412" data-name="Path 1412" transform="translate(-5673 10316.665)" fill="#9441ff">
        <path d="M 5759.91650390625 -9955.017578125 C 5759.6474609375 -9955.017578125 5759.4169921875 -9955.025390625 5759.232421875 -9955.03515625 C 5759.5107421875 -9955.41796875 5759.99267578125 -9956.0185546875 5760.658203125 -9956.61328125 C 5762.1123046875 -9957.912109375 5763.70654296875 -9958.5712890625 5765.396484375 -9958.5712890625 C 5765.833984375 -9958.5712890625 5766.28173828125 -9958.525390625 5766.7275390625 -9958.435546875 L 5766.87939453125 -9958.404296875 L 5766.99267578125 -9958.5107421875 C 5767.18212890625 -9958.6884765625 5767.3525390625 -9958.9111328125 5767.17919921875 -9959.20703125 C 5767.2236328125 -9959.3408203125 5767.552734375 -9959.853515625 5769.69384765625 -9961.642578125 C 5772.09423828125 -9963.6494140625 5772.6162109375 -9966.6455078125 5772.9970703125 -9968.833984375 C 5773.27001953125 -9970.4013671875 5773.46484375 -9971.3623046875 5774.009765625 -9971.3623046875 L 5774.01611328125 -9971.3623046875 C 5774.091796875 -9971.361328125 5774.32177734375 -9971.3583984375 5774.5283203125 -9970.982421875 C 5775.3525390625 -9969.482421875 5774.65576171875 -9964.5673828125 5772.81396484375 -9961.595703125 C 5770.6884765625 -9958.1669921875 5769.14599609375 -9957.546875 5765.7666015625 -9956.1884765625 L 5765.4736328125 -9956.0703125 C 5763.31298828125 -9955.2001953125 5761.2587890625 -9955.017578125 5759.91650390625 -9955.017578125 Z" stroke="none"/>
        <path d="M 5759.91650390625 -9954.7177734375 L 5759.91650390625 -9955.3173828125 C 5761.232421875 -9955.3173828125 5763.24560546875 -9955.4970703125 5765.361328125 -9956.3486328125 L 5765.65478515625 -9956.466796875 C 5768.9716796875 -9957.7998046875 5770.4853515625 -9958.408203125 5772.55908203125 -9961.75390625 C 5773.38623046875 -9963.0888671875 5774.0478515625 -9964.9609375 5774.3740234375 -9966.8896484375 C 5774.66845703125 -9968.6328125 5774.62548828125 -9970.1826171875 5774.26513671875 -9970.837890625 C 5774.14306640625 -9971.060546875 5774.0517578125 -9971.0615234375 5774.009765625 -9971.0625 C 5773.689453125 -9971.0625 5773.46044921875 -9969.744140625 5773.29296875 -9968.7822265625 C 5772.90380859375 -9966.548828125 5772.37109375 -9963.4892578125 5769.88623046875 -9961.4130859375 C 5768.171875 -9959.9794921875 5767.66455078125 -9959.4072265625 5767.51513671875 -9959.19140625 C 5767.6171875 -9958.8876953125 5767.5107421875 -9958.5859375 5767.19775390625 -9958.2919921875 L 5766.97216796875 -9958.080078125 L 5766.66845703125 -9958.1416015625 C 5766.24169921875 -9958.2275390625 5765.81396484375 -9958.271484375 5765.396484375 -9958.271484375 C 5763.7880859375 -9958.271484375 5762.26513671875 -9957.6416015625 5760.87158203125 -9956.4013671875 C 5760.44580078125 -9956.0224609375 5760.09716796875 -9955.640625 5759.8310546875 -9955.318359375 C 5759.85888671875 -9955.318359375 5759.8876953125 -9955.3173828125 5759.91650390625 -9955.3173828125 L 5759.91650390625 -9954.7177734375 M 5759.91650390625 -9954.7177734375 C 5759.1552734375 -9954.7177734375 5758.6962890625 -9954.77734375 5758.6962890625 -9954.77734375 C 5758.6962890625 -9954.77734375 5761.12353515625 -9958.87109375 5765.396484375 -9958.87109375 C 5765.84033203125 -9958.87109375 5766.30419921875 -9958.8271484375 5766.787109375 -9958.7294921875 C 5767.4912109375 -9959.390625 5765.4482421875 -9958.4853515625 5769.50146484375 -9961.873046875 C 5773.5478515625 -9965.2548828125 5772.0810546875 -9971.662109375 5774.009765625 -9971.662109375 C 5774.01318359375 -9971.662109375 5774.01611328125 -9971.662109375 5774.01953125 -9971.662109375 C 5775.96337890625 -9971.640625 5775.30810546875 -9965.0498046875 5773.06884765625 -9961.4375 C 5770.82958984375 -9957.8251953125 5769.17041015625 -9957.2353515625 5765.58544921875 -9955.7919921875 C 5763.33642578125 -9954.88671875 5761.1982421875 -9954.7177734375 5759.91650390625 -9954.7177734375 Z" stroke="none" fill="#7024d2"/>
      </g>
      <g id="Path_1413" data-name="Path 1413" transform="translate(-5672.991 10316.665)" fill="#9441ff">
        <path d="M 5765.033203125 -9954.96484375 C 5762.61083984375 -9954.96484375 5760.27490234375 -9955.02734375 5759.25 -9955.0595703125 C 5759.53076171875 -9955.443359375 5760.0068359375 -9956.03125 5760.658203125 -9956.61328125 C 5761.6708984375 -9957.517578125 5762.75146484375 -9958.1123046875 5763.88525390625 -9958.3896484375 C 5763.4716796875 -9958.1767578125 5763.30322265625 -9957.9736328125 5763.322265625 -9957.7353515625 C 5763.3564453125 -9957.3037109375 5763.9208984375 -9957.2060546875 5764.82080078125 -9957.1865234375 C 5765.08056640625 -9957.1806640625 5765.34765625 -9957.177734375 5765.615234375 -9957.177734375 C 5768.84765625 -9957.177734375 5772.60498046875 -9957.5849609375 5775.92431640625 -9958.2958984375 C 5776.4462890625 -9958.4072265625 5776.93603515625 -9958.5234375 5777.4091796875 -9958.6357421875 C 5778.45166015625 -9958.8828125 5779.3525390625 -9959.0966796875 5779.94677734375 -9959.0966796875 C 5780.24462890625 -9959.0966796875 5780.43994140625 -9959.0439453125 5780.5283203125 -9958.939453125 C 5780.63427734375 -9958.8134765625 5780.61865234375 -9958.5654296875 5780.58642578125 -9958.3798828125 C 5780.3857421875 -9957.2060546875 5776.849609375 -9955.9990234375 5771.3583984375 -9955.2294921875 C 5770.10546875 -9955.0546875 5767.9775390625 -9954.96484375 5765.033203125 -9954.96484375 Z" stroke="none"/>
        <path d="M 5779.94677734375 -9958.796875 L 5779.94677734375 -9958.796875 C 5779.3876953125 -9958.796875 5778.5029296875 -9958.5869140625 5777.47802734375 -9958.34375 C 5777.00341796875 -9958.2314453125 5776.51220703125 -9958.1142578125 5775.98681640625 -9958.001953125 C 5772.64794921875 -9957.2880859375 5768.86767578125 -9956.8779296875 5765.615234375 -9956.8779296875 C 5765.34521484375 -9956.8779296875 5765.07568359375 -9956.880859375 5764.814453125 -9956.88671875 C 5764.16796875 -9956.900390625 5763.08544921875 -9956.9228515625 5763.02294921875 -9957.7119140625 C 5763.02099609375 -9957.7373046875 5763.02001953125 -9957.7626953125 5763.0205078125 -9957.7880859375 C 5762.2763671875 -9957.4755859375 5761.55859375 -9957.0126953125 5760.87158203125 -9956.4013671875 C 5760.45654296875 -9956.0322265625 5760.1142578125 -9955.6591796875 5759.8505859375 -9955.341796875 C 5761.0361328125 -9955.3095703125 5763.00341796875 -9955.265625 5765.033203125 -9955.265625 C 5767.96337890625 -9955.265625 5770.07763671875 -9955.353515625 5771.31689453125 -9955.5263671875 C 5772.9189453125 -9955.7509765625 5775.23486328125 -9956.1396484375 5777.169921875 -9956.7138671875 C 5780.0048828125 -9957.5556640625 5780.26708984375 -9958.291015625 5780.291015625 -9958.4306640625 C 5780.326171875 -9958.634765625 5780.3046875 -9958.72265625 5780.29736328125 -9958.7451171875 C 5780.27587890625 -9958.7568359375 5780.18701171875 -9958.796875 5779.94677734375 -9958.796875 M 5779.94677734375 -9959.396484375 C 5780.6572265625 -9959.396484375 5781.0185546875 -9959.1240234375 5780.88232421875 -9958.3291015625 C 5780.57373046875 -9956.525390625 5774.90673828125 -9955.423828125 5771.39990234375 -9954.9326171875 C 5769.9189453125 -9954.7255859375 5767.4228515625 -9954.6650390625 5765.033203125 -9954.6650390625 C 5761.76513671875 -9954.6650390625 5758.6962890625 -9954.77734375 5758.6962890625 -9954.77734375 C 5758.6962890625 -9954.77734375 5761.12353515625 -9958.87109375 5765.396484375 -9958.87109375 C 5765.66357421875 -9958.87109375 5765.9375 -9958.85546875 5766.21875 -9958.8212890625 C 5764.865234375 -9958.5751953125 5761.9921875 -9957.546875 5764.8271484375 -9957.486328125 C 5765.08837890625 -9957.48046875 5765.35107421875 -9957.478515625 5765.615234375 -9957.478515625 C 5769.1953125 -9957.478515625 5772.99658203125 -9957.9755859375 5775.861328125 -9958.5888671875 C 5777.58203125 -9958.95703125 5779.04541015625 -9959.396484375 5779.94677734375 -9959.396484375 Z M 5766.66943359375 -9958.8740234375 C 5766.83447265625 -9958.8740234375 5766.89501953125 -9958.8310546875 5766.787109375 -9958.7294921875 C 5766.5947265625 -9958.7685546875 5766.4052734375 -9958.798828125 5766.21875 -9958.8212890625 C 5766.4033203125 -9958.8544921875 5766.5595703125 -9958.8740234375 5766.66943359375 -9958.8740234375 Z" stroke="none" fill="#7024d2"/>
      </g>
      <path id="Path_1420" data-name="Path 1420" d="M5709.473-9978.54s-.543-1.35-1.152-2.985-1.044-2.967-1.734-3.209-1.344.658-2.307,2.293a10.094,10.094,0,0,0-1.095,3.9Z" transform="translate(-5679 10321.318)" fill="#9441ff" stroke="#7024d2" stroke-width="0.6"/>
      <g id="Group_866" data-name="Group 866" transform="translate(0 -8)">
        <g id="Rectangle_538-4" data-name="Rectangle 538" transform="translate(20 348)" fill="#9441ff" stroke="#7024d2" stroke-width="0.6">
          <rect width="78" height="22" rx="11" stroke="none"/>
          <rect x="0.3" y="0.3" width="77.4" height="21.4" rx="10.7" fill="none"/>
        </g>
        <text id="狗狗摯友" transform="translate(59 364)" fill="#fff" font-size="12" font-family="YuGothicUI-Bold, Yu Gothic UI" font-weight="700"><tspan x="-24" y="0">狗狗摯友</tspan></text>
      </g>
      <path id="Path_1414" data-name="Path 1414" d="M5774.609-9926.172a4.875,4.875,0,0,1,1.422,3.545" transform="translate(-5673 10279.647)" fill="none" stroke="#7024d2" stroke-linecap="round" stroke-width="0.5"/>
      <path id="Path_1415" data-name="Path 1415" d="M5774.608-9926.171c1.5,1.19,2.14,3.7,2.14,5.334" transform="translate(-5671.359 10277.753)" fill="none" stroke="#7024d2" stroke-linecap="round" stroke-width="0.5"/>
      <path id="Path_1423" data-name="Path 1423" d="M5705.872-9980.272c-1.11-.359-1.8-.536-1.534-1.253.609-1.635,1.044-2.967,1.734-3.209s1.344.658,2.307,2.293.687,3.569,0,3.268A21.018,21.018,0,0,0,5705.872-9980.272Z" transform="translate(-5671 10321.318)" fill="#9441ff" stroke="#7024d2" stroke-width="0.6"/>
    </g>
    <line id="Line_123" data-name="Line 123" x2="307" transform="translate(34 434)" fill="none" stroke="rgba(0,0,0,0.87)" stroke-width="1"/>
  </g>
</svg>
